<svg xmlns:vectornator="http://vectornator.io" xmlns="http://www.w3.org/2000/svg" viewBox="0 0 16 16" fill-rule="evenodd" clip-rule="evenodd" stroke-linecap="round" stroke-linejoin="round"><g vectornator:layerName="layer1"><path d="M12.519 7.554c.28-.025.816-.147 1.121-.099.305.05.553.164.41.436-.14.264-1.053.339-1.69.992-.64.652-.962 1.316-1.255 2.26-.117.378-.21.925-.078 1.347.11.354.197.664.873.915.584.216 1.226.077 1.775.23.288.079.866.41.725.724-.148.33-1.08.088-1.696 0-.76-.108-1.108-.172-1.781-.191-.88-.026-1.658.047-2.43.158-1.168.168-2.153.503-3.723.086-1.86-.495-4.104-3.01-3.053-7.16.607-2.396 3.16-5.85 8.92-6.04 1.608-.053 1.941.056 1.986.335.027.166-.607.318-1.63.349-5.9.175-7.985 3.953-8.401 5.35-.763 2.56.064 6.435 3.363 6.597 1.862.091 3.075-.882 3.69-1.595.616-.712.976-1.47 1.158-2.466.102-.56.053-.965-.33-1.179-.495-.276-1.387-.156-2.165.004-.594.123-1.161.05-1.244-.227a.56.56 0 01.305-.643c.304-.142 1.004.035 1.985.006.982-.028 1.276-.048 1.916-.088.64-.04.836-.049 1.249-.101"/><path d="M12.086 5.034a.46.46 0 01.46.461v.015a.46.46 0 11-.92 0v-.015a.46.46 0 01.46-.461z"/></g></svg>