<?xml version="1.0" encoding="UTF-8" standalone="no"?> <!-- Created with Vectornator for iOS (http://vectornator.io/) --><!DOCTYPE svg PUBLIC "-//W3C//DTD SVG 1.1//EN" "http://www.w3.org/Graphics/SVG/1.1/DTD/svg11.dtd">
<svg height="100%" style="fill-rule:nonzero;clip-rule:evenodd;stroke-linecap:round;stroke-linejoin:round;" version="1.1" viewBox="0 0 1024 1024" width="100%" xml:space="preserve" xmlns="http://www.w3.org/2000/svg" xmlns:vectornator="http://vectornator.io" xmlns:xlink="http://www.w3.org/1999/xlink">
<metadata>
<vectornator:setting key="IsTimeLapseWatermarkDisabled" value="false"/>
<vectornator:setting key="UndoHistoryDisabled" value="false"/>
<vectornator:setting key="VNDimensionsVisible" value="true"/>
<vectornator:setting key="VNSnapToGuides" value="true"/>
<vectornator:setting key="WDCMYKEnabledKey" value="false"/>
<vectornator:setting key="WDDisplayWhiteBackground" value="false"/>
<vectornator:setting key="WDDynamicGuides" value="false"/>
<vectornator:setting key="WDGuidesVisible" value="true"/>
<vectornator:setting key="WDIsolateActiveLayer" value="false"/>
<vectornator:setting key="WDOutlineMode" value="false"/>
<vectornator:setting key="WDRulersVisible" value="true"/>
<vectornator:setting key="WDSnapToEdges" value="false"/>
<vectornator:setting key="WDSnapToGrid" value="false"/>
<vectornator:setting key="WDSnapToPoints" value="false"/>
<vectornator:setting key="WDUnits" value="Pixels"/>
</metadata>
<defs/>
<g id="layer" vectornator:layerName="layer">
<path d="M-9.52832e-06 512C-9.52832e-06 229.23 229.23-7.58467e-06 512-7.58467e-06C794.77-7.58467e-06 1024 229.23 1024 512C1024 794.77 794.77 1024 512 1024C229.23 1024-9.52832e-06 794.77-9.52832e-06 512Z" fill="#ffffff" opacity="1" stroke="#000000" stroke-linecap="round" stroke-linejoin="round" stroke-opacity="0" stroke-width="3"/>
</g>
<g id="图层 1" vectornator:layerName="图层 1">
<path d="M677.215 470.481C688.428 469.497 709.872 464.592 722.068 466.543C734.264 468.494 744.189 473.078 738.446 483.944C732.849 494.533 696.356 497.506 670.825 523.622C645.295 549.739 632.397 576.274 620.674 614.049C615.98 629.175 612.272 651.056 617.532 667.928C621.945 682.085 625.436 694.471 652.48 704.505C675.808 713.159 701.481 707.593 723.455 713.677C734.961 716.863 758.085 730.122 752.458 742.68C746.54 755.889 709.264 746.202 684.612 742.68C654.231 738.34 640.297 735.806 613.378 735.014C578.16 733.978 547.065 736.907 516.187 741.353C469.482 748.076 430.09 761.481 367.265 744.78C292.891 725.008 203.134 624.399 245.161 458.437C269.437 362.573 371.548 224.442 601.92 216.815C666.254 214.686 679.598 219.036 681.384 230.202C682.45 236.869 657.111 242.942 616.161 244.158C380.214 251.163 296.808 402.267 280.148 458.198C249.652 560.577 282.699 715.546 414.651 722.02C489.14 725.674 537.663 686.764 562.283 658.256C586.904 629.749 601.305 599.412 608.582 559.602C612.681 537.175 610.721 521.02 595.377 512.454C575.585 501.405 539.914 506.188 508.795 512.613C485.032 517.52 462.343 514.6 459.048 503.518C456.206 493.959 461.38 482.394 471.241 477.798C483.383 472.138 511.373 479.186 550.637 478.06C589.901 476.934 601.662 476.104 627.269 474.504C652.877 472.904 660.693 472.575 677.215 470.481" fill="#000000" opacity="1" stroke="#000000" stroke-linecap="round" stroke-linejoin="round" stroke-opacity="0" stroke-width="3"/>
<path d="M659.911 369.671L659.911 369.671C670.068 369.671 678.301 377.94 678.301 388.139L678.301 388.745C678.301 398.944 670.068 407.213 659.911 407.213L659.911 407.213C649.755 407.213 641.522 398.944 641.522 388.745L641.522 388.139C641.522 377.94 649.755 369.671 659.911 369.671Z" fill="#000000" opacity="1" stroke="#000000" stroke-linecap="round" stroke-linejoin="round" stroke-opacity="0" stroke-width="3"/>
</g>
<g id="图层 1 复制" vectornator:layerName="图层 1 复制">
<path d="M638.662 472.818C649.875 471.833 671.319 466.928 683.515 468.88C695.711 470.831 705.636 475.415 699.892 486.281C694.296 496.869 657.803 499.843 632.272 525.959C606.742 552.075 593.844 578.61 582.121 616.385C577.427 631.511 573.719 653.392 578.979 670.264C583.392 684.421 586.883 696.808 613.927 706.841C637.254 715.496 662.928 709.929 684.902 716.014C696.408 719.2 719.532 732.459 713.905 745.017C707.987 758.225 670.711 748.538 646.059 745.017C615.677 740.676 601.744 738.142 574.825 737.351C539.607 736.315 508.512 739.244 477.634 743.689C430.929 750.413 391.537 763.817 328.712 747.116C254.338 727.345 164.581 626.735 206.608 460.774C230.884 364.91 332.995 226.778 563.367 219.152C627.701 217.022 641.045 221.373 642.831 232.538C643.897 239.205 618.557 245.278 577.608 246.494C341.661 253.5 258.255 404.604 241.595 460.535C211.099 562.913 244.146 717.882 376.098 724.356C450.587 728.011 499.11 689.1 523.73 660.593C548.351 632.085 562.752 601.749 570.029 561.938C574.128 539.511 572.168 523.356 556.824 514.791C537.032 503.742 501.361 508.525 470.242 514.95C446.479 519.857 423.79 516.936 420.495 505.855C417.653 496.296 422.826 484.73 432.687 480.134C444.83 474.474 472.82 481.523 512.084 480.397C551.348 479.271 563.109 478.441 588.716 476.841C614.324 475.24 622.14 474.912 638.662 472.818" fill="#004edb" opacity="1" stroke="#000000" stroke-linecap="round" stroke-linejoin="round" stroke-opacity="0" stroke-width="3"/>
<path d="M659.911 369.671L659.911 369.671C670.068 369.671 678.301 377.94 678.301 388.139L678.301 388.745C678.301 398.944 670.068 407.213 659.911 407.213L659.911 407.213C649.755 407.213 641.522 398.944 641.522 388.745L641.522 388.139C641.522 377.94 649.755 369.671 659.911 369.671Z" fill="#000000" opacity="1" stroke="#000000" stroke-linecap="round" stroke-linejoin="round" stroke-opacity="0" stroke-width="3"/>
<path d="M540.255 176.593L713.892 176.593L713.892 226.741L540.255 226.741L540.255 176.593Z" fill="#004edb" opacity="1" stroke="#000000" stroke-linecap="round" stroke-linejoin="round" stroke-opacity="0" stroke-width="3"/>
<path d="M606.074 211.07L752.13 211.07L752.13 267.486L606.074 267.486L606.074 211.07Z" fill="#004edb" opacity="1" stroke="#000000" stroke-linecap="round" stroke-linejoin="round" stroke-opacity="0" stroke-width="3"/>
<path d="M423.034 471.212L569.09 471.212L569.09 527.629L423.034 527.629L423.034 471.212Z" fill="#004edb" opacity="1" stroke="#000000" stroke-linecap="round" stroke-linejoin="round" stroke-opacity="0" stroke-width="3"/>
<path d="M411.124 727.594L585.121 727.594L585.121 798.269L411.124 798.269L411.124 727.594Z" fill="#004edb" opacity="1" stroke="#000000" stroke-linecap="round" stroke-linejoin="round" stroke-opacity="0" stroke-width="3"/>
</g>
<g id="layer_2" vectornator:layerName="layer">
<path d="M522.624 112.843C320.204 112.843 156.094 277.72 156.094 481.094C156.094 684.468 320.204 849.344 522.624 849.344C725.045 849.344 889.124 684.468 889.124 481.094C889.124 277.72 725.045 112.843 522.624 112.843ZM623.726 216.329C669.403 215.888 679.837 220.442 681.399 230.211C682.465 236.878 657.1 242.939 616.151 244.154C380.204 251.16 296.792 402.286 280.132 458.218C249.636 560.596 282.691 715.543 414.642 722.017C489.131 725.672 537.66 686.755 562.28 658.247C586.901 629.74 601.299 599.401 608.576 559.591C612.675 537.164 610.7 521.016 595.357 512.45C575.565 501.401 539.921 506.206 508.802 512.631C485.039 517.538 462.361 514.598 459.066 503.517C456.225 493.958 461.368 482.4 471.229 477.804C483.372 472.144 511.397 479.202 550.661 478.076C589.925 476.95 601.649 476.115 627.257 474.515C652.864 472.914 660.683 472.565 677.204 470.471C688.417 469.486 709.855 464.596 722.051 466.547C734.246 468.499 744.181 473.095 738.438 483.961C732.841 494.549 696.367 497.501 670.836 523.617C645.305 549.733 632.401 576.259 620.678 614.035C615.983 629.16 612.28 651.064 617.539 667.935C621.952 682.092 625.413 694.449 652.457 704.483C675.784 713.137 701.464 707.602 723.439 713.687C734.945 716.873 758.098 730.132 752.472 742.69C746.553 755.898 709.28 746.211 684.628 742.69C654.247 738.35 640.294 735.786 613.374 734.994C578.156 733.958 547.044 736.917 516.166 741.362C469.461 748.085 430.085 761.473 367.26 744.772C292.887 725.001 203.127 624.39 245.154 458.429C269.43 362.565 371.564 224.438 601.936 216.812C609.978 216.546 617.201 216.392 623.726 216.329ZM659.911 369.671C670.067 369.671 678.291 377.941 678.29 388.141L678.29 388.744C678.29 398.944 670.068 407.214 659.911 407.214C649.755 407.214 641.532 398.944 641.532 388.744L641.532 388.141C641.532 377.941 649.755 369.671 659.911 369.671Z" fill="#ffffff" opacity="1" stroke="#000000" stroke-linecap="round" stroke-linejoin="round" stroke-opacity="0" stroke-width="3"/>
</g>
</svg>
